<?xml version="1.0" encoding="UTF-8" standalone="no"?>
<!-- Created with Inkscape (http://www.inkscape.org/) -->

<svg
   width="4096"
   height="4096"
   viewBox="0 0 4096 4096"
   version="1.1"
   id="svg1"
   sodipodi:docname="exalted.svg"
   inkscape:version="1.3.2 (091e20e, 2023-11-25, custom)"
   inkscape:export-filename="exalted.png"
   inkscape:export-xdpi="12"
   inkscape:export-ydpi="12"
   xmlns:inkscape="http://www.inkscape.org/namespaces/inkscape"
   xmlns:sodipodi="http://sodipodi.sourceforge.net/DTD/sodipodi-0.dtd"
   xmlns:xlink="http://www.w3.org/1999/xlink"
   xmlns="http://www.w3.org/2000/svg"
   xmlns:svg="http://www.w3.org/2000/svg"
   xmlns:rdf="http://www.w3.org/1999/02/22-rdf-syntax-ns#"
   xmlns:cc="http://creativecommons.org/ns#">
  <sodipodi:namedview
     id="namedview1"
     pagecolor="#ffffff"
     bordercolor="#000000"
     borderopacity="0.25"
     inkscape:showpageshadow="2"
     inkscape:pageopacity="0.0"
     inkscape:pagecheckerboard="0"
     inkscape:deskcolor="#d1d1d1"
     inkscape:document-units="px"
     inkscape:zoom="0.21020508"
     inkscape:cx="1332.0325"
     inkscape:cy="1995.6701"
     inkscape:window-width="1858"
     inkscape:window-height="1057"
     inkscape:window-x="54"
     inkscape:window-y="-8"
     inkscape:window-maximized="1"
     inkscape:current-layer="layer1" />
  <defs
     id="defs1">
    <linearGradient
       id="linearGradient93"
       inkscape:collect="always">
      <stop
         style="stop-color:#0a1450;stop-opacity:1;"
         offset="0"
         id="stop94" />
      <stop
         style="stop-color:#280a1e;stop-opacity:1;"
         offset="1"
         id="stop95" />
    </linearGradient>
    <linearGradient
       inkscape:collect="always"
       xlink:href="#linearGradient93"
       id="linearGradient1"
       x1="-4.1723251e-07"
       y1="2048"
       x2="4096"
       y2="2048"
       gradientUnits="userSpaceOnUse"
       gradientTransform="translate(-8.524036e-5,-6.5255985e-5)" />
  </defs>
  <g
     inkscape:label="Layer 1"
     inkscape:groupmode="layer"
     id="layer1">
    <circle
       style="fill:url(#linearGradient1);fill-opacity:1;stroke-width:1.0081"
       id="path40"
       r="2000"
       cy="2047.9999"
       cx="2047.9999" />
    <path
       style="fill:#e6e6e6;fill-opacity:1;stroke:none;stroke-width:5;stroke-dasharray:none;stroke-opacity:1"
       id="path2"
       d="m 623.74849,904.72331 c 4.0467,20.0083 9.71749,40.2648 19.71192,62.66248 26.67549,59.78001 73.87279,119.37131 119.40851,155.91251 16.0087,12.8465 33.90078,23.1517 50.85127,34.7275 94.7065,53.7228 200.77471,84.1213 308.36171,98.7021 32.24,4.3693 64.6482,9.4915 97.1805,9.0888 40.0375,-0.4957 79.6956,-7.848 119.5437,-11.7718 181.5144,-34.3095 356.6948,-100.6473 514.2196,-197.4781 24.1046,-14.8172 47.0614,-31.4251 70.5919,-47.1378 74.7033,-53.89551 160.3899,-123.97799 169.6525,-224.00615 2.4655,-26.62566 3.0002,-55.12313 -7.0301,-79.91024 -12.7415,-31.48761 -32.0263,-55.96724 -59.4478,-78.07174 -25.2988,-18.29372 -52.119,-35.7293 -81.1459,-43.78201 -58.0829,-16.11371 -137.3308,-12.54152 -196.239,-5.64509 -79.4321,9.29901 -149.6188,25.37419 -225.7407,50.43936 -42.0579,13.84865 -82.8417,31.303 -124.2625,46.95456 -40.6994,19.65418 -82.5737,37.04115 -122.098,58.96227 -176.5539,97.92108 -347.96835,243.98463 -461.81863,411.60764 -31.13539,45.8406 -55.0045,96.2163 -82.50674,144.3246 -18.9068,46.7394 -40.82074,92.3722 -56.72038,140.2181 -49.27755,148.2882 -83.10338,353.9801 56.40745,468.9405 36.26367,29.8821 83.46933,43.184 125.20394,64.776 128.31115,32.3693 256.52246,14.1986 384.89186,-4.9032 38.5631,-5.738 76.715,-14.3463 115.4604,-18.6869 30.5621,-3.424 61.4645,-2.4839 92.147,-4.5713 20.1502,-1.3709 40.2082,-3.867 60.3122,-5.8005 87.8166,-6.8247 -99.8825,10.5709 -129.1506,-58.5755 -31.2451,-73.8174 27.0915,-159.2911 23.1807,-239.3534 -0.6123,-12.5373 -22.806,10.4996 -34.0909,15.996 -74.6989,36.3823 -71.0811,35.4235 -151.3103,77.9128 -191.4248,116.7808 -363.9486,263.53 -508.32302,435.2613 -28.35919,33.7328 -54.2765,69.445 -81.41494,104.1675 -90.31942,134.5415 -168.42523,285.1016 -169.59599,451.5802 -0.74876,106.4871 14.608,130.1619 45.16035,228.2038 21.52709,34.6147 39.63538,71.6062 64.58129,103.8444 67.93413,87.7928 168.40157,152.8115 274.45667,184.3519 85.89079,25.5437 136.52813,23.948 223.53784,29.2143 157.0622,-6.4161 310.0694,-47.6196 445.0107,-129.7881 95.3614,-58.0677 116.9133,-85.094 198.5109,-159.8643 31.4327,-35.2653 64.0908,-69.476 94.2984,-105.7966 92.9449,-111.7518 174.2939,-233.3307 262.3375,-348.8788 101.0477,-132.6148 93.9421,-121.2791 200.702,-249.6194 92.8034,-108.4847 187.1756,-209.98 299.0549,-299.0692 56.6862,-45.1389 100.1721,-81.1767 159.744,-105.1582 17.7306,-7.1378 47.1211,-24.6119 62.2934,-10.0455 15.7057,15.0784 -2.4133,50.6241 -7.7633,64.8538 -7.5767,20.7281 -19.0485,42.2041 -30.2385,62.207 -44.8481,81.7908 -69.867,132.3779 -126.1317,211.0339 -13.0586,18.2556 -190.0814,240.2202 -201.9747,255.1837 -136.5468,171.7964 -73.5017,88.8688 -198.9671,261.6585 -26.1938,36.4365 -52.4398,72.8358 -78.5816,109.3096 -8.6081,12.0103 -155.3586,202.6312 -125.1872,225.7341 275.3807,210.8646 254.718,188.4126 381.1326,56.8341 240.031,-265.9859 497.1028,-516.1469 753.4155,-766.2965 125.4592,-117.3416 249.2825,-236.4908 376.4833,-351.9648 67.4551,-61.2361 137.7125,-118.9157 204.0829,-181.2915 134.7385,-138.0897 79.6542,-153.2573 -183.9376,-293.3446 -19.645,-10.4405 -36.4349,25.5944 -53.7562,39.5556 -34.7534,28.0119 -87.5308,78.6065 -118.6295,107.6574 -148.5687,154.501 -291.5704,318.1584 -402.0927,502.7371 -23.9519,40.0014 -44.6209,81.8792 -66.9313,122.8189 -16.9503,40.406 -36.7757,79.723 -50.8514,121.218 -37.3792,110.1958 -57.7309,234.708 -33.3194,350.3035 19.6905,93.2398 40.3013,110.8819 89.5176,188.5178 57.6417,53.7798 78.0249,83.4698 152.8037,112.3403 85.7057,33.0894 196.3555,31.787 284.3369,8.9135 35.4072,-9.205 70.9856,-20.0282 103.1852,-37.3942 42.0395,-22.6729 81.951,-51.0765 114.8013,-85.7497 37.2625,-39.3302 68.9903,-85.381 90.0996,-135.2786 60.2433,-154.2431 -0.6406,-102.6462 -113.3263,-64.5964 -34.9021,11.211 -70.5978,19.996 -106.4737,27.5301 -35.8195,7.5221 -89.6629,17.2231 -108.3831,17.5987 -48.0015,0.9637 -91.0309,-15.7734 -131.9151,-38.9762 -4.2684,-4.0404 -9.4329,-7.3071 -12.8047,-12.1213 -36.1208,-51.5749 -18.0288,-141.7216 -0.5877,-195.4506 9.9001,-30.4986 24.1037,-59.428 36.1555,-89.1421 17.1174,-32.7003 32.7993,-66.193 51.3524,-98.1005 20.5238,-35.2966 43.281,-69.2563 65.7732,-103.3322 81.4252,-123.3599 169.3614,-243.3968 273.1558,-349.0429 95.7531,-96.2732 10.3985,-12.541 91.3555,-87.3011 3.8561,-3.5606 14.4416,-7.4848 10.9027,-11.3607 -346.9154,-379.9449 -260.9288,-108.4141 -191.4054,-262.2728 3.9195,-8.6743 -13.0806,13.8317 -19.6208,20.7476 -189.9824,181.3934 -380.4789,362.218 -572.6715,541.2962 -268.8094,246.3824 -539.4234,491.3705 -785.5044,761.0249 -117.1584,127.6295 -93.3862,21.4339 136.7623,253.7345 16.6995,16.8557 63.1749,0.4865 58.783,23.8042 -2.9473,15.6474 14.8671,-28.2053 23.4655,-41.6067 16.3948,-25.5531 33.4455,-50.712 51.4498,-75.1578 25.5542,-34.6971 52.7805,-68.1315 79.171,-102.197 106.1679,-129.7866 217.4347,-262.3018 313.2551,-399.7773 35.0931,-50.3491 68.0424,-102.1908 100.1872,-154.4715 29.201,-47.493 58.325,-95.1579 83.7912,-144.7539 25.7393,-50.1278 46.4218,-102.6952 69.6329,-154.0428 26.7656,-115.3558 51.1153,-161.1664 25.3037,-280.3234 -8.3047,-38.3378 -23.5861,-76.1966 -46.2584,-108.2073 -58.8068,-83.028 -119.0938,-122.6478 -218.6538,-137.7655 -39.3709,-5.9782 -79.6055,2.4934 -119.4079,3.7401 -38.9687,11.872 -79.2692,20.0279 -116.9055,35.6159 -131.989,54.6671 -243.5164,148.1551 -347.7941,243.3773 -39.467,36.0396 -78.2708,72.8728 -115.3942,111.3217 -38.3717,39.742 -73.9691,82.0723 -110.9539,123.1082 -107.7766,129.8986 -111.9141,131.4704 -212.0156,265.4892 -103.2195,138.1935 -198.0701,282.9827 -311.9864,412.9506 -45.0521,43.0752 -76.257,77.0069 -128.1384,111.3768 -82.7832,54.842 -178.452,84.3491 -277.1033,90.0923 -116.05732,-4.1744 -181.32732,-6.3792 -257.70137,-102.5815 -12.29735,-28.352 -25.60678,-52.3086 -27.71556,-84.0156 -6.74961,-101.4931 47.61517,-193.0092 100.29592,-274.5889 22.24124,-28.6392 43.48941,-58.0783 66.72395,-85.9178 118.56266,-142.0607 260.37246,-264.0073 416.38016,-363.1595 105.7121,-58.9164 39.5994,-23.4238 139.4722,-74.2037 18.2248,-9.2663 46.619,-9.2069 54.5442,-28.0537 35.5742,-84.5953 92.3927,-177.6303 69.2996,-266.448 -23.7478,-91.3351 -135.9179,-68.4937 -197.3191,-59.9579 -90.1217,24.9895 -41.5737,9.8195 -145.0602,47.339 -33.169,9.3245 -67.1536,15.5996 -101.0784,21.6186 -79.3632,14.08 -154.2932,51.8997 -231.2128,38.2626 -19.24012,-3.4111 -41.29103,-13.7089 -51.01882,-28.8694 -12.46477,-19.426 -13.11015,-35.6554 -11.97163,-58.7087 4.80275,-97.2416 16.60886,-104.2669 52.38519,-200.5219 20.12765,-37.2322 37.49882,-76.0921 60.38316,-111.6966 88.2138,-137.2462 230.8532,-249.2141 362.9095,-355.05239 30.459,-24.4118 64.4766,-44.131 98.1566,-63.8627 33.7238,-19.75731 68.3131,-38.16651 103.8363,-54.46824 36.6433,-16.81568 74.7965,-30.1348 112.4422,-44.56765 27.3674,-10.4923 53.8962,-23.94315 82.4516,-30.55023 19.8095,-4.58349 40.4363,-7.82674 60.6945,-6.08444 8.3666,0.71956 18.7789,0.40226 24.2695,6.75602 5.5976,6.47758 6.0533,17.39831 3.2276,25.47956 -9.3216,26.65774 -27.0223,27.46431 -60.7032,59.10066 -18.8305,13.57572 -37.0738,28.00482 -56.4914,40.72662 -132.9885,87.12848 -282.5163,146.78819 -437.5455,180.70119 -28.9133,5.0337 -57.5433,12.1206 -86.7397,15.101 -58.9131,6.0139 -93.973,1.2266 -151.8521,-8.2558 -59.5955,-9.7637 -116.34896,-25.7198 -170.55192,-52.7578 -15.62726,-9.4392 -53.98007,-31.8376 -68.95766,-43.75351 C 801.55293,946.70031 750.36277,894.98281 718.99466,864.97913 627.47075,762.37527 604.20977,765.08558 623.74849,904.72331 Z"
       sodipodi:nodetypes="csscsscscsscssscsscsscssscssccscscsscsccscssascsscssccscsscscsscssaaaaascsscsscscscccscsscssscssscssscscsccscscscscccassccaaaaaaaacccsscscc" />
  </g>
  <metadata
     id="metadata1">
    <rdf:RDF>
      <cc:License
         rdf:about="http://creativecommons.org/licenses/by-nd/4.0/">
        <cc:permits
           rdf:resource="http://creativecommons.org/ns#Reproduction" />
        <cc:permits
           rdf:resource="http://creativecommons.org/ns#Distribution" />
        <cc:requires
           rdf:resource="http://creativecommons.org/ns#Notice" />
        <cc:requires
           rdf:resource="http://creativecommons.org/ns#Attribution" />
      </cc:License>
      <cc:Work
         rdf:about="">
        <cc:license
           rdf:resource="http://creativecommons.org/licenses/by-nd/4.0/" />
      </cc:Work>
    </rdf:RDF>
  </metadata>
</svg>
